<svg xmlns="http://www.w3.org/2000/svg" xmlns:svgjs="http://svgjs.com/svgjs" xmlns:xlink="http://www.w3.org/1999/xlink" width="288" height="288"><svg xmlns="http://www.w3.org/2000/svg" width="288" height="288" viewBox="0 0 64 64"><path style="line-height:normal;text-indent:0;text-align:start;text-decoration-line:none;text-decoration-style:solid;text-decoration-color:#000;text-transform:none;block-progression:tb;white-space:normal;isolation:auto;mix-blend-mode:normal;solid-color:#000;solid-opacity:1" fill="#303a52" fill-rule="evenodd" d="M2 995.362v47H0v1h2v2h1v-2h45v1.5a.5.5 0 0 0 .5.5h9a.5.5 0 0 0 .5-.5v-3c0-.822-.678-1.5-1.5-1.5H56v-1c0-.545-.455-1-1-1h-.5v-3.08a5.385 5.385 0 0 0 4.34-4.025 3.988 3.988 0 0 0 3.16-3.895v-.66a.5.5 0 0 0 0-.033v-2.806a.5.5 0 0 0-.5-.5H59v-1.5a.5.5 0 0 0-.5-.5h-11a.5.5 0 0 0-.5.5v1.5h-2.5a.5.5 0 0 0-.5.5v2.591a.5.5 0 0 0 .006.09.5.5 0 0 0-.006.09v.729c0 1.104.447 2.11 1.17 2.832a3.978 3.978 0 0 0 1.992 1.07 5.385 5.385 0 0 0 4.338 4.018v3.08H51c-.545 0-1 .455-1 1v1h-.5c-.822 0-1.5.678-1.5 1.5v.5H3v-47H2zm3 3v1h1v-1H5zm2 0v1h3v-1H7zm4 0v1h11v-1H11zm-6 2v1h1v-1H5zm2 0v1h3v-1H7zm4 0v1h11v-1H11zm28.5 4v1h2.313l-10.979 11.287-1.994-1.994-8 8-2.986-2.984L4.5 1031.995l.678.736 12.648-11.676 3.014 3.014 8-8 2.004 2.006L42.5 1006.09v2.273h1v-4h-4zm0 7v29h1v-29h-1zm9.5 2c-.823 0-1.5.678-1.5 1.5 0 .823.677 1.5 1.5 1.5s1.5-.677 1.5-1.5c0-.822-.677-1.5-1.5-1.5zm-12.5 1v26h1v-26h-1zm12.5 0c.282 0 .5.218.5.5 0 .282-.218.5-.5.5a.493.493 0 0 1-.5-.5c0-.282.218-.5.5-.5zm9.064 1.313a.5.5 0 0 0-.41.756l.532.918a.5.5 0 1 0 .865-.5l-.53-.918a.5.5 0 0 0-.457-.256zm2.903.779a.5.5 0 0 0-.223.068l-.92.53a.5.5 0 1 0 .5.867l.92-.532a.5.5 0 0 0-.277-.935zm-27.467.908v23h1v-23h-1zm10.576.576a.5.5 0 0 0-.35.86l.354.353-.353.354a.5.5 0 1 0 .707.707l.353-.354.354.354a.5.5 0 1 0 .707-.707l-.354-.354.354-.353a.5.5 0 0 0-.364-.86.5.5 0 0 0-.343.153l-.354.353-.353-.353a.5.5 0 0 0-.358-.153zm14.176.104a.5.5 0 0 0-.272.068l-.917.531a.5.5 0 1 0 .5.865l.917-.53a.5.5 0 0 0-.228-.937zm1.412.39a.5.5 0 0 0-.41.756l.531.918a.5.5 0 1 0 .865-.5l-.53-.918a.5.5 0 0 0-.456-.255zm-32.164.93v21h1v-21h-1zm3 1v20h1v-20h-1zm-6 2v18h1v-18h-1zm23.5 0h10V1029.974a4.368 4.368 0 0 1-4.389 4.388H52.39a4.368 4.368 0 0 1-4.389-4.389v-7.611zm-32.5 2v16h1v-16h-1zm3 0v16h1v-16h-1zm26.5 0h2v5.612c0 .075.009.148.012.222a2.987 2.987 0 0 1-2.012-2.834v-.728a.5.5 0 0 0-.006-.092.5.5 0 0 0 .006-.088v-2.092zm14 0h2v2.234a.5.5 0 0 0 0 .038v.728a2.98 2.98 0 0 1-2.012 2.828c.003-.073.012-.144.012-.217v-5.612zm-37.5 1v15h1v-15h-1zm31.496.238a.5.5 0 0 0-.455.28l-.648 1.332-1.467.222a.5.5 0 0 0-.274.854l1.069 1.027-.244 1.465a.5.5 0 0 0 .728.524l1.309-.696 1.316.684a.5.5 0 0 0 .72-.533l-.257-1.461 1.059-1.037a.5.5 0 0 0-.284-.852l-1.466-.207-.664-1.326a.5.5 0 0 0-.391-.272.5.5 0 0 0-.05 0zm-.002 1.63.33.654a.5.5 0 0 0 .377.273l.727.102-.524.513a.5.5 0 0 0-.14.442l.127.724-.65-.338a.5.5 0 0 0-.468 0l-.646.342.121-.72a.5.5 0 0 0-.145-.444l-.527-.508.725-.109a.5.5 0 0 0 .377-.275l.316-.657zm-40.494.132v13h1v-13h-1zm-3 3v10h1v-10h-1zm-3 3v7h1v-7h-1zm38.74 1.274a.5.5 0 0 0-.41.756l.492.855a.5.5 0 1 0 .867-.5l-.494-.855a.5.5 0 0 0-.455-.256zm2.776.724a.5.5 0 0 0-.272.068l-.867.502a.5.5 0 1 0 .5.865l.867-.5a.5.5 0 0 0-.228-.937zm4.484 0h1v3h-1v-3zm5.5 0a.5.5 0 0 0-.5.5.5.5 0 0 0 .5.5.5.5 0 0 0 .5-.5.5.5 0 0 0-.5-.5zm-12.594 1.498a.5.5 0 0 0-.271.068l-.856.494a.5.5 0 1 0 .5.866l.856-.493a.5.5 0 0 0-.229-.937zm1.338.371a.5.5 0 0 0-.41.756l.494.854a.5.5 0 1 0 .865-.5l-.492-.854a.5.5 0 0 0-.457-.256zm12.832 1.707a.5.5 0 0 0-.35.86l.354.353-.353.354a.5.5 0 1 0 .707.707l.353-.354.354.354a.5.5 0 1 0 .707-.707l-.354-.354.354-.353a.5.5 0 0 0-.364-.86.5.5 0 0 0-.343.153l-.354.353-.353-.353a.5.5 0 0 0-.358-.153zm-8.576.424h4v1h-4v-1zm-7.5 1a.5.5 0 0 0-.5.5.5.5 0 0 0 .5.5.5.5 0 0 0 .5-.5.5.5 0 0 0-.5-.5zm6 1h7c.286 0 .5.215.5.5v2.5h-8v-2.5c0-.285.214-.5.5-.5zm1.5 1v1h4v-1h-4z" class="color000 svgShape" color="#000" enable-background="accumulate" font-family="sans-serif" font-weight="400" overflow="visible" transform="translate(0 -988.362)"/></svg></svg>