<svg xmlns="http://www.w3.org/2000/svg" width="512" height="512" enable-background="new 0 0 512.087 512.087" viewBox="0 0 512.087 512.087"><path d="M121.087,475.93v36.114h240v-43.566l15.811-47.434h105.189v-42.566l30-90V90.043h-60v-60h-61v-30h-90v30h-60v60h-60v30h-60   v205.693l-55.05-47.597L0,336.245L121.087,475.93z M422.087,60.043v120h30v-60h30v163.566l-30,90v17.434h-65.189l4.189-12.566   c0-70.12,0-253.438,0-318.434H422.087z M361.087,30.043c0,17.848,0,131.974,0,150h-30c0-16.573,0-132.774,0-150H361.087z    M271.087,60.043h30v60h-30C271.087,112.784,271.087,67.351,271.087,60.043z M66.209,317.948l49.845,43.096h35.033v-211h30   c0,18.475,0,132.692,0,151h30c0-9.2,0-174.059,0-181h30c0,17.296,0,155.669,0,181h30c0-15.204,0-133.019,0-151h30   c0,17.17,0,136.015,0,151h30c0-11.176,0-80.971,0-91h30v163.566l-30,90v18.434h-180v-17.306L42.174,339.096L66.209,317.948z"/><rect width="60" height="30" x="53.587" y="45.188" transform="rotate(60 83.59 60.188)"/><rect width="57.561" height="30" x="3.869" y="127.543" transform="rotate(-148.586 32.653 142.549)"/><rect width="30" height="60" x="151.087" y=".043"/></svg>