<svg xmlns="http://www.w3.org/2000/svg" xmlns:svgjs="http://svgjs.com/svgjs" xmlns:xlink="http://www.w3.org/1999/xlink" width="288" height="288"><svg xmlns="http://www.w3.org/2000/svg" width="288" height="288" data-name="Layer 1" viewBox="0 0 24 24"><path d="M21,22H3a1,1,0,0,1-1-1V3A1,1,0,0,1,4,3V20H21a1,1,0,0,1,0,2Z" class="color000 svgShape"/><path fill="#080808" d="M17.69,15.26c-3.87,0-6.82-.92-8.77-2.75S5.94,7.83,6,4.16a1,1,0,0,1,1-1,1,1,0,0,1,1,1c0,3.13.7,5.37,2.29,6.86,1.88,1.76,5.07,2.48,9.46,2.13a1,1,0,0,1,1.08.91,1,1,0,0,1-.92,1.08Q18.76,15.26,17.69,15.26Z" class="colorff3d00 svgShape"/><path fill="#080808" d="M19.83,15.17a1,1,0,0,1-.71-.29l-2.83-2.83a1,1,0,0,1,0-1.41,1,1,0,0,1,1.42,0l2.83,2.83a1,1,0,0,1-.71,1.7Z" class="colorff3d00 svgShape"/><path fill="#080808" d="M17,18a1,1,0,0,1-.71-.29,1,1,0,0,1,0-1.42l2.83-2.82a1,1,0,0,1,1.42,0,1,1,0,0,1,0,1.41l-2.83,2.83A1,1,0,0,1,17,18Z" class="colorff3d00 svgShape"/></svg></svg>