<svg xmlns="http://www.w3.org/2000/svg" xmlns:xlink="http://www.w3.org/1999/xlink" width="64" height="64"><defs><path id="a" d="M.06 64V.04H64V64z"/></defs><g fill="none" fill-rule="evenodd"><mask id="b" fill="#fff"><use xlink:href="#a"/></mask><path fill="#B85756" d="M64 32c0 17.673-14.327 32-32 32C14.327 64 0 49.673 0 32 0 14.327 14.327 0 32 0c17.673 0 32 14.327 32 32" mask="url(#b)"/><path fill="#974D4C" d="M46 54H18a2 2 0 1 1 0-4h28a2 2 0 1 1 0 4"/><path fill="#D5915B" d="M36 45a3 3 0 0 1-3 3h-2a3 3 0 0 1-3-3V35a3 3 0 0 1 3-3h2a3 3 0 0 1 3 3v10"/><path fill="#974D4C" d="M41 34a1.999 1.999 0 0 1-1.663-.889c.384-.354.762-.748 1.129-1.183A2 2 0 0 0 41 32c5.277 0 10.443-6.668 10.958-12.075.028.357.042.735.042 1.136C52 26.591 46.562 34 41 34m-18 0c-5.562 0-11-7.409-11-12.939 0-.401.014-.779.042-1.136C12.557 25.332 17.723 32 23 32a2 2 0 0 0 .534-.072c.367.435.745.829 1.129 1.183-.359.536-.97.889-1.663.889m-6.965-14.338a5.411 5.411 0 0 1-.035-.6c0-1.02 0-1.706.212-2.164A2.001 2.001 0 0 0 18 18h.49a.27.27 0 0 1 .004.028c-1.889.094-2.347.457-2.459 1.634m31.93 0c-.112-1.177-.57-1.54-2.459-1.634A.27.27 0 0 1 45.51 18H46c.782 0 1.459-.449 1.788-1.102.212.458.212 1.144.212 2.164 0 .194-.012.394-.035.6"/><path fill="#D5915B" d="M41 32a2 2 0 0 1 0-4c3.178 0 7-5.49 7-8.938C48 16.349 48 16 44 16H20c-4 0-4 .349-4 3.062C16 22.51 19.822 28 23 28a2 2 0 0 1 0 4c-5.562 0-11-7.408-11-12.938C12 12.54 15.784 12 20 12h24c4.216 0 8 .54 8 7.062C52 24.592 46.562 32 41 32"/><path fill="#F0CB83" d="M18.043 12c.61 19.911 8.388 24 13.957 24 5.569 0 13.347-4.089 13.957-24H18.043M43.704 50.254C42.508 46.676 37.727 44 32 44s-10.508 2.676-11.704 6.254h23.408"/><path fill="#4C5665" d="M48 50a2 2 0 0 1-2 2H18a2 2 0 1 1 0-4h28a2 2 0 0 1 2 2"/><path fill="#974D4C" d="M36 44v-4a2 2 0 1 1 0 4m-8 0a2 2 0 1 1 0-4v4"/><path fill="#AE7A51" d="M28 44h8v-4h-8z"/><path fill="#F0CB83" d="M38 40a2 2 0 0 1-2 2h-8a2 2 0 1 1 0-4h8a2 2 0 0 1 2 2"/><path fill="#7D4241" d="M46 18h-.49c.079-.631.149-1.285.209-1.959 1.247.08 1.813.303 2.069.857A2.001 2.001 0 0 1 46 18"/><path fill="#AE7A51" d="M47.788 16.898c-.256-.554-.822-.777-2.069-.857.059-.66.11-1.34.15-2.041H46a2 2 0 0 1 1.788 2.898"/><path fill="#7D4241" d="M18.49 18H18a2.001 2.001 0 0 1-1.788-1.102c.256-.554.822-.777 2.069-.857.06.674.13 1.328.209 1.959"/><path fill="#AE7A51" d="M16.212 16.898A2 2 0 0 1 18 14h.131c.04.701.091 1.381.15 2.041-1.247.08-1.813.303-2.069.857"/><path fill="#C1A56E" d="M45.51 18H18.49a55.153 55.153 0 0 1-.209-1.959c-.059-.66-.11-1.34-.15-2.041h27.738c-.04.701-.091 1.381-.15 2.041-.06.674-.13 1.328-.209 1.959"/><path fill="#F0CB83" d="M48 14a2 2 0 0 1-2 2H18a2 2 0 1 1 0-4h28a2 2 0 0 1 2 2"/></g></svg>