<svg xmlns="http://www.w3.org/2000/svg" data-name="Layer 1" viewBox="0 0 512 512" id="football-player"><path fill="#343c4a" d="M175.628 107.499V89.347a12.843 12.843 0 0 0-5.712-10.681 71.488 71.488 0 0 1-30.436-45.584l-3.49-17.642a10 10 0 0 1 9.81-11.941h132.83a57.743 57.743 0 0 1 57.742 57.743v46.257Z"></path><path fill="#57aafe" d="M447.56 501.999v-161.68a60 60 0 0 0-38.01-55.824l-97.019-38.217a20 20 0 0 1-12.67-18.608v-32.907H212.14v32.907a20 20 0 0 1-12.67 18.608l-97.019 38.217a60 60 0 0 0-38.01 55.825v161.679a10 10 0 0 0 10 10h363.12a10 10 0 0 0 10-10Z"></path><path fill="#f9beac" d="M312.531 246.278a20 20 0 0 1-12.67-18.608v-32.907H212.14v32.907a20 20 0 0 1-12.67 18.608l56.531 56Z"></path><path fill="#416bd0" d="M447.56 501.999v-161.68a60 60 0 0 0-38.01-55.824l-.79-.311-16.23 35.72a96.585 96.585 0 0 0-8.65 39.952V512h53.68a10 10 0 0 0 10-10zM119.47 319.904l-16.23-35.72-.79.31a60 60 0 0 0-38.01 55.826v161.679a10 10 0 0 0 10 10h53.68V359.856a96.587 96.587 0 0 0-8.65-39.952z"></path><path fill="#e58a7b" d="m279.063 248.552 23.334-11.153a19.961 19.961 0 0 1-2.536-9.73v-32.906H212.14v26.107a74.34 74.34 0 0 0 19.83 13.836l28.968 13.846a21.02 21.02 0 0 0 18.126 0Z"></path><path fill="#f9beac" d="M336.372 146.54a74.444 74.444 0 0 1-42.34 67.166l-28.969 13.846a21.017 21.017 0 0 1-18.126 0l-28.968-13.846a74.444 74.444 0 0 1-42.341-67.166V87.499l7-14 35.69-28 118.054 28Z"></path><path fill="#fff" d="M235.181 443.514a3.5 3.5 0 0 1-3.5-3.5v-41.853h-6.194a3.5 3.5 0 1 1 0-7h9.694a3.5 3.5 0 0 1 3.5 3.5v45.353a3.5 3.5 0 0 1-3.5 3.5zm38.216.925a16.634 16.634 0 0 1-16.615-16.614V406.85a16.615 16.615 0 1 1 33.23 0v20.974a16.634 16.634 0 0 1-16.615 16.614zm0-47.204a9.626 9.626 0 0 0-9.615 9.616v20.974a9.615 9.615 0 0 0 19.23 0V406.85a9.626 9.626 0 0 0-9.615-9.616z"></path><path fill="#ff7b4f" d="m324.707 251.075-12.176-4.797a19.963 19.963 0 0 1-7.513-5.213L256 290.083l-49.018-49.018a19.962 19.962 0 0 1-7.513 5.213l-12.176 4.797 58.1 58.1a15 15 0 0 0 21.214 0Z"></path><path fill="#f9beac" d="M64.44 452.984h63.68v59.015H74.44a10 10 0 0 1-10-10v-49.015ZM437.56 511.998h-53.68v-59.015h63.68v49.015a10 10 0 0 1-10 10Z"></path><path fill="#ff7b4f" d="M64.44 438.984h63.68v20.968H64.44zM171.469 386.517a27.21 27.21 0 0 1-12.969-22.993V339.97a53.301 53.301 0 0 0 14.58-2.914 52.344 52.344 0 0 0 11.39-5.623 50.759 50.759 0 0 0 11.643 5.79 51.753 51.753 0 0 0 14.387 2.79v23.51a27.211 27.211 0 0 1-12.969 22.994l-13.031 8.228Z"></path><path fill="#343c4a" d="m175.49 87.499 12.704-10.914a52.619 52.619 0 0 1 45.508-11.495L336.37 87.5l.002-26.257-82.226-31.525-78.518 18.87Z"></path><path fill="#e58a7b" d="M256.001 198.267a36.92 36.92 0 0 1-15.72-3.538 3.5 3.5 0 0 1 2.998-6.325 29.695 29.695 0 0 0 25.442 0 3.5 3.5 0 1 1 2.997 6.326 36.955 36.955 0 0 1-15.606 3.537zm12.703-45.716v6.672a12.701 12.701 0 0 1-12.7 12.701h-.007a12.701 12.701 0 0 1-12.701-12.7v-6.673a3 3 0 0 1 3-3h19.408a3 3 0 0 1 3 3z"></path><path fill="#343c4a" d="M302.545 115.04a3.49 3.49 0 0 1-1.326-.262 27.436 27.436 0 0 0-11.043-2.038 27.147 27.147 0 0 0-9.661 2.037 3.5 3.5 0 1 1-2.659-6.475 34.205 34.205 0 0 1 26.018 0 3.5 3.5 0 0 1-1.33 6.739zm-11.679 17.708a3.5 3.5 0 0 1-3.5-3.5v-7.434a3.5 3.5 0 1 1 7 0v7.434a3.5 3.5 0 0 1-3.5 3.5zm-81.41-17.707a3.5 3.5 0 0 1-1.331-6.74 34.205 34.205 0 0 1 26.017 0 3.5 3.5 0 0 1-2.655 6.477 27.525 27.525 0 0 0-11.043-2.038 27.14 27.14 0 0 0-9.661 2.037 3.486 3.486 0 0 1-1.328.264zm11.678 17.707a3.5 3.5 0 0 1-3.5-3.5v-7.434a3.5 3.5 0 0 1 7 0v7.434a3.5 3.5 0 0 1-3.5 3.5z"></path><path fill="#f9f7f8" d="M508.48 439.208a68.976 68.976 0 0 1-12.996 40.408c-3.424 4.762-7.438 2.072-11.934 5.823-6.795 5.67-14.692 17.062-23.324 19.809a69.687 69.687 0 0 1-42.075 0c-7.044-2.243-13.6-12.58-19.467-16.815-6.077-4.385-11.415-2.732-15.79-8.817a68.976 68.976 0 0 1-12.996-40.408c0-7.225 1.106-7.192 3.158-13.741 2.3-7.342 5.79-21.159 10.243-27.224a69.442 69.442 0 0 1 34.093-24.827c6.854-2.27 14.182 3.502 21.797 3.502 7.175 0 14.096-5.91 20.605-3.885a69.414 69.414 0 0 1 34.92 24.718c4.323 5.78.764 12.258 3.125 19.234s10.64 14.45 10.64 22.223Z"></path><path fill="#eaeaea" d="M439.189 424.396a3.5 3.5 0 0 1-3.5-3.5v-37.44a3.5 3.5 0 0 1 7 0v37.44a3.5 3.5 0 0 1-3.5 3.5zm32.05 61.868a3.492 3.492 0 0 1-2.662-1.226l-20.302-23.742a3.5 3.5 0 0 1 5.32-4.549l20.302 23.742a3.5 3.5 0 0 1-2.659 5.775zm-64.47.433a3.5 3.5 0 0 1-2.659-5.775l20.208-23.632a3.5 3.5 0 1 1 5.32 4.548l-20.207 23.633a3.493 3.493 0 0 1-2.662 1.226zm54.32-47.827a3.5 3.5 0 0 1-1.446-6.69l32.65-14.784a3.5 3.5 0 0 1 2.888 6.377l-32.65 14.785a3.49 3.49 0 0 1-1.443.312zm-43.7.045a3.492 3.492 0 0 1-1.442-.313l-31.07-14.068a3.5 3.5 0 1 1 2.888-6.377l31.07 14.069a3.5 3.5 0 0 1-1.446 6.689z"></path><path fill="#343c4a" d="m436.838 415.604-21.913 15.92a4 4 0 0 0-1.453 4.473l8.37 25.76a4 4 0 0 0 3.804 2.764h27.086a4 4 0 0 0 3.804-2.764l8.37-25.76a4 4 0 0 0-1.453-4.472l-21.913-15.92a4 4 0 0 0-4.702 0zm24.149-42.19-19.447 14.128a4 4 0 0 1-4.702 0l-19.447-14.129a69.722 69.722 0 0 1 43.596 0zm-77.637 24.732 7.428 22.86a4 4 0 0 1-1.453 4.473l-19.447 14.129a69.39 69.39 0 0 1 13.472-41.462zm-.47 81.48h24.038a4 4 0 0 1 3.804 2.763l7.428 22.861a69.64 69.64 0 0 1-35.27-25.625zm77.347 25.624 7.429-22.86a4 4 0 0 1 3.804-2.765h24.037a69.634 69.634 0 0 1-35.27 25.625zm48.273-65.642-19.447-14.13a4 4 0 0 1-1.453-4.471l7.428-22.861a69.384 69.384 0 0 1 13.472 41.462z"></path><path fill="#e58a7b" d="M336.372 135.579v-41.05h5.73a17.66 17.66 0 0 1 17.66 17.66 23.39 23.39 0 0 1-23.39 23.39ZM175.628 135.579a23.39 23.39 0 0 1-23.39-23.39 17.66 17.66 0 0 1 17.66-17.66h5.73v41.05Z"></path></svg>