<svg xmlns="http://www.w3.org/2000/svg" width="96" height="96"><path d="M48 0C21.496 0 0 21.496 0 48s21.496 48 48 48 48-21.496 48-48S74.504 0 48 0zm0 1c25.963 0 47 21.037 47 47S73.963 95 48 95 1 73.963 1 48 22.037 1 48 1zm-4.492 18a.5.5 0 0 0-.5.5V47h-3V27.5a.5.5 0 0 0-.5-.5h-8a.5.5 0 0 0-.5.5V47h-3V34.5a.5.5 0 0 0-.5-.5h-8a.5.5 0 0 0-.5.5V47h-1.5a.5.5 0 1 0 0 1h1.5v12.5a.5.5 0 0 0 .5.5h8a.5.5 0 0 0 .5-.5V48h3v19.5a.5.5 0 0 0 .5.5h8a.5.5 0 0 0 .5-.5V48h3v27.5a.5.5 0 0 0 .5.5h8a.5.5 0 0 0 .5-.5V48h3v10.5a.5.5 0 0 0 .5.5h8a.5.5 0 0 0 .5-.5V48h3v17.5a.5.5 0 0 0 .5.5h8a.5.5 0 0 0 .5-.5V48h1.5a.5.5 0 1 0 0-1h-1.5V29.5a.5.5 0 0 0-.5-.5h-8a.5.5 0 0 0-.5.5V47h-3V36.5a.5.5 0 0 0-.5-.5h-8a.5.5 0 0 0-.5.5V47h-3V19.5a.5.5 0 0 0-.5-.5h-8zm.5 1h7v27h-7V20zm-12 8h7v19h-7V28zm36 2h7v17h-7V30zm-48 5h7v12h-7V35zm36 2h7v10h-7V37zm-36 11h.814l-.814.814V48zm2.228 0h1.414l-3.642 3.643v-1.414L22.236 48zm2.828 0h1.415l-6.471 6.47v-1.413L25.064 48zm6.944 0h1.119l-1.12 1.12V48zm2.533 0h1.414l-3.947 3.947v-1.414L34.54 48zm2.828 0h1.414l-6.336 6.338-.44.44v-1.415L37.37 48zm6.639 0h1.119l-1.12 1.12V48zm2.533 0h1.414l-3.947 3.947v-1.414L46.54 48zm2.828 0h1.414l-6.336 6.338-.44.44v-1.415L49.37 48zm6.639 0h1.119l-1.12 1.12V48zm2.533 0h1.414l-3.947 3.947v-1.414L58.54 48zm2.828 0h1.414l-6.336 6.338-.44.44v-1.415L61.37 48zm6.639 0h1.119l-1.12 1.12V48zm2.533 0h1.414l-3.947 3.947v-1.414L70.54 48zm2.828 0h1.414l-6.336 6.338-.44.44v-1.415L73.37 48zm-46.361.885v1.414l-7 7v-1.414l7-7zm12 .306v1.414l-5.147 5.147-1.414 1.414-.44.44V56.19l1.147-1.146 5.854-5.854zm12 0v1.414l-5.147 5.147-1.414 1.414-.44.44V56.19l1.147-1.146 5.854-5.854zm12 0v1.414l-5.147 5.147-1.414 1.414-.44.44V56.19l1.147-1.146 5.854-5.854zm12 0v1.414l-5.147 5.147-1.414 1.414-.44.44V56.19l1.147-1.146 5.854-5.854zm-48 2.522v1.414L20.135 60h-.127v-1.287l7-7zm12 .307v1.414l-3.733 3.732-3.267 3.268V59.02l1.146-1.147 1.414-1.414 4.44-4.44zm12 0v1.414l-3.733 3.732-3.267 3.268V59.02l1.146-1.147 1.414-1.414 4.44-4.44zm12 0v1.414l-3.733 3.732-.834.834h-1.414l.127-.127 1.414-1.414 4.44-4.44zm12 0v1.414l-3.733 3.732-3.267 3.268V59.02l1.146-1.147 1.414-1.414 4.44-4.44zm-48 2.521v1.414L22.963 60h-1.414l5.459-5.459zm12 .307v1.414l-2.319 2.318-4.681 4.682v-1.414l3.974-3.975 3.026-3.025zm12 0v1.414l-2.319 2.318-4.681 4.682v-1.414l3.974-3.975 3.026-3.025zm12 0v1.414L61.27 58h-1.415l.127-.127 3.026-3.025zm12 0v1.414l-2.319 2.318-4.681 4.682v-1.414l3.974-3.975 3.026-3.025zm-48 2.521v1.414L25.79 60h-1.414l2.63-2.63zm12 .307v1.414l-.904.904-6.096 6.098v-1.416l5.388-5.389 1.612-1.611zm12 0v1.414l-.904.904-6.096 6.098v-1.416l5.388-5.389 1.612-1.611zm12 0V58h-.324l.324-.324zm12 0v1.414l-.904.904L69.1 65h-1.092v-.324l5.388-5.389 1.612-1.611zm-36 2.828v1.414L33.928 67h-1.414l6.297-6.299.197-.197zm12 0v1.414l-7 7.002v-1.414L50.81 60.7l.197-.197zm24 0v1.414L71.928 65h-1.414l4.297-4.299.197-.197zm-36 2.828v1.414L36.754 67h-1.412l3.666-3.668zm12 0v1.414l-7 7.002v-1.414l7-7.002zm24 0v1.414l-.254.254H73.34l1.668-1.668zm-36 2.828V67h-.84l.84-.84zm12 0v1.414l-7 7.002v-1.414l7-7.002zm0 2.83v1.414L46.412 75h-1.414l6.01-6.01zm0 2.828v1.414L49.24 75h-1.414l3.182-3.182zm0 2.828V75h-.354l.354-.354z" color="#000" font-family="sans-serif" font-weight="400" overflow="visible" style="line-height:normal;text-indent:0;text-align:start;text-decoration-line:none;text-decoration-style:solid;text-decoration-color:#000;text-transform:none;block-progression:tb;white-space:normal;isolation:auto;mix-blend-mode:normal;solid-color:#000;solid-opacity:1"/></svg>