<svg xmlns="http://www.w3.org/2000/svg" data-name="Layer 3" viewBox="0 0 64 64"><path fill="#cf8b76" d="M46.426,49.572A6.74,6.74,0,0,1,44,44.394V43.62H32v.774a6.74,6.74,0,0,1-2.426,5.178L34,54h8Z"/><path fill="#f1b79d" d="M46.427,49.572a6.729,6.729,0,0,1-2.409-4.847c-.131.08-.26.163-.4.238a11.465,11.465,0,0,1-9.763.672.468.468,0,0,0-.629.337l-.012.048A6.675,6.675,0,0,1,29.8,50.213l-1,.531,2.864,4.005,2.631.438S36.3,54.512,37.476,54H42Z"/><path fill="#4c4c4c" d="M53,14.574v2.355a99.372,99.372,0,0,1-.7,11.8H23.7a99.372,99.372,0,0,1-.7-11.8v-.907Z"/><path fill="#cf8b76" d="M26 28h0a4 4 0 00-4 4h0a4 4 0 004 4h.368M50 28h0a4 4 0 014 4h0a4 4 0 01-4 4h-.368"/><path fill="#cf8b76" d="M48.6,19.2l.06.121A12.7,12.7,0,0,1,50,25h0v8a12.4,12.4,0,0,1-6.378,10.839h0A11.577,11.577,0,0,1,38,45.3h0a11.577,11.577,0,0,1-5.622-1.457h0A12.4,12.4,0,0,1,26,33V25h0a12.7,12.7,0,0,1,1.342-5.683l.22-.441"/><path fill="#f1b79d" d="M34.378,43.839A11.567,11.567,0,0,0,39,45.232a11.567,11.567,0,0,0,4.622-1.393A12.4,12.4,0,0,0,50,33V25a12.7,12.7,0,0,0-1.342-5.683L48.6,19.2l-19.051-.29-.205.411A12.7,12.7,0,0,0,28,25v8A12.4,12.4,0,0,0,34.378,43.839Z"/><path fill="#cf8b76" d="M38,42a6.006,6.006,0,0,1-6-6h2a4,4,0,0,0,8,0h2A6.006,6.006,0,0,1,38,42Z"/><path fill="#212121" d="M24.587,8.522h0A5.133,5.133,0,0,0,22,12.979h0a5.133,5.133,0,0,0,2.641,4.488h0A28.073,28.073,0,0,0,38.275,21H41.28a15.759,15.759,0,0,0,7.047-1.664h0a10.259,10.259,0,0,0,4.211-3.9h0A10.269,10.269,0,0,0,54,10.157V8L52.688,9.312A2.348,2.348,0,0,1,51.027,10h0a8.575,8.575,0,0,1-3.84-.907h0A29.306,29.306,0,0,0,34.083,6h0A19.135,19.135,0,0,0,24.587,8.522Z"/><path fill="#383838" d="M51.027,10a8.575,8.575,0,0,1-3.84-.907A29.306,29.306,0,0,0,34.083,6a19.142,19.142,0,0,0-9.432,2.488,5.121,5.121,0,0,0,1.99,6.979A28.073,28.073,0,0,0,40.275,19H43.28a15.759,15.759,0,0,0,7.047-1.664,10.162,10.162,0,0,0,1.588-1.01,10.408,10.408,0,0,0,.623-.889A10.262,10.262,0,0,0,54,10.157V8L52.688,9.312A2.348,2.348,0,0,1,51.027,10Z"/><path fill="#0056bf" d="M61,63V59.516a8.493,8.493,0,0,0-2.487-6h0a8.493,8.493,0,0,0-3.564-2.128L47,49l-.466.465A12.065,12.065,0,0,1,38,53h0a12.071,12.071,0,0,1-8.536-3.536L29,49,16,52V63.045Z"/><path fill="#0068dc" d="M61,59.516a8.49,8.49,0,0,0-6.05-8.131L47,49l-.466.465a12.07,12.07,0,0,1-17.07,0L29,49l-9.77,2.254a11.039,11.039,0,0,0,10.814,8.78L61,60Z"/><path fill="#b77968" d="M29.273,29.3l.385-.513,2.519-1.259a23.507,23.507,0,0,0,6.116-4.409,2.406,2.406,0,0,0-1.556-4.106l-.3,0A9.495,9.495,0,0,0,31.294,20.6l-.7.469-2.65.662-.135-2.855-.243,0-.22.441A12.7,12.7,0,0,0,26,25v7.332A12.616,12.616,0,0,0,29.273,29.3Z"/><path fill="#212121" d="M27.809,18.974l0-.095-.221,0C27.659,18.907,27.733,18.944,27.809,18.974Z"/><path fill="#111" d="M31.907,20.255A28.107,28.107,0,0,0,38.275,21h.685a2.413,2.413,0,0,0-2.223-1.985l-.3,0A9.492,9.492,0,0,0,31.907,20.255Z"/><path fill="#cf8b76" d="M16,52l-3-1,9-18h0a11.614,11.614,0,0,0,6.474-4.3L29,28l2.729-1.365a22.519,22.519,0,0,0,5.857-4.221h0a1.415,1.415,0,0,0,.414-1h0A1.414,1.414,0,0,0,36.586,20h0a8.545,8.545,0,0,0-4.738,1.434L31,22l-4,1L26.091,3.921A2.019,2.019,0,0,0,24.067,2h-.05A2.016,2.016,0,0,0,22,4.016V14l-2.847,1A4.387,4.387,0,0,0,15,18H14a3,3,0,0,0-3,3h0a20.183,20.183,0,0,0,.392,3.961L13,33,3.7,49.74a5.562,5.562,0,0,0-.7,2.7H3a5.561,5.561,0,0,0,3.231,5.05L16,62Z"/><path fill="#f1b79d" d="M35.586,21h0a8.539,8.539,0,0,0-4.737,1.434L30,23l-4,1L25.091,4.921A2.019,2.019,0,0,0,23.067,3h-.05a2,2,0,0,0-.833.184A2.017,2.017,0,0,0,22,4.016V14l-2.847,1A4.387,4.387,0,0,0,15,18H14a3,3,0,0,0-3,3,20.183,20.183,0,0,0,.392,3.961L13,33,3.7,49.74a5.562,5.562,0,0,0,2.531,7.751L16,62V52l-3-1,9-18a11.611,11.611,0,0,0,6.474-4.3L29,28l2.729-1.365a22.485,22.485,0,0,0,4.992-3.423,1.4,1.4,0,0,0,.279-.8A1.414,1.414,0,0,0,35.586,21Z"/><path fill="#cf8b76" d="M15.7,24.909a.624.624,0,0,1-.321.091.907.907,0,0,1-.862-.622l-.565-1.694-1.9.632.565,1.7A2.908,2.908,0,0,0,15.376,27a2.6,2.6,0,0,0,1.459-.455,2.664,2.664,0,0,0,3.7-.724A2.675,2.675,0,0,0,21.5,26a2.705,2.705,0,0,0,2.679-2.364l.653-5.229a22,22,0,0,0,.168-2.7H23a20.126,20.126,0,0,1-.152,2.452l-.654,5.229a.7.7,0,0,1-1.388,0l-.654-5.229A20.126,20.126,0,0,1,20,15.707v-1l-.847.3A4.377,4.377,0,0,0,18,15.168v.539a22,22,0,0,0,.168,2.7l.653,5.229a2.654,2.654,0,0,0,.179.655v.024a.685.685,0,0,1-1.35.166l-1.68-6.723-1.94.484Z"/><path d="M59.221,52.807a9.531,9.531,0,0,0-3.984-2.38l-7.949-2.385a.991.991,0,0,0-.849.141A5.717,5.717,0,0,1,45,44.4v-.229a13.4,13.4,0,0,0,5.393-7.206,4.963,4.963,0,0,0,2.954-8.648A100.959,100.959,0,0,0,54,16.929v-2.16a11.258,11.258,0,0,0,1-4.612V8a1,1,0,0,0-1.707-.707L51.981,8.605A1.357,1.357,0,0,1,51.028,9a7.625,7.625,0,0,1-3.393-.8A30.459,30.459,0,0,0,34.084,5,19.972,19.972,0,0,0,27.2,6.237l-.112-2.364A3.048,3.048,0,0,0,21,4.017V13h-.293a2.687,2.687,0,0,0-1.914.793,2.658,2.658,0,0,0-.2.248A5.377,5.377,0,0,0,14.332,17H14a4,4,0,0,0-4,4,21.27,21.27,0,0,0,.412,4.157l1.535,7.679L2.826,49.255A6.561,6.561,0,0,0,5.812,58.4L15,62.64v.405h2V52.8l11.686-2.7.072.072a13.072,13.072,0,0,0,18.484,0l.044-.043,7.376,2.213a7.516,7.516,0,0,1,3.145,1.878A7.438,7.438,0,0,1,60,59.517V63h2V59.517A9.422,9.422,0,0,0,59.221,52.807ZM49,33a11.406,11.406,0,0,1-5.863,9.965,10.754,10.754,0,0,1-10.275,0A11.4,11.4,0,0,1,27,33V31.621A12.571,12.571,0,0,0,29.273,29.3l.385-.513,2.519-1.259a23.507,23.507,0,0,0,6.116-4.409A2.42,2.42,0,0,0,38.918,22h2.363A16.846,16.846,0,0,0,48.1,20.545,11.747,11.747,0,0,1,49,25ZM25.133,34.865a2.991,2.991,0,0,1-1.672-1.273,12.674,12.674,0,0,0,1.54-.68V33A13.422,13.422,0,0,0,25.133,34.865Zm25.737-.009A13.293,13.293,0,0,0,51,33V29.184a2.981,2.981,0,0,1-.131,5.672ZM51,27.1V25a13.765,13.765,0,0,0-1.139-5.412,11.219,11.219,0,0,0,2.126-1.8c-.027,3.151-.209,6.319-.539,9.454C51.3,27.193,51.156,27.133,51,27.1ZM34.084,7A28.443,28.443,0,0,1,46.74,9.988,9.644,9.644,0,0,0,51.028,11,3.365,3.365,0,0,0,53,10.357a9.263,9.263,0,0,1-5.118,8.085A14.839,14.839,0,0,1,41.281,20l-2.749,0a2.406,2.406,0,0,0-1.946-1,9.479,9.479,0,0,0-3.153.558,27.043,27.043,0,0,1-5.677-1.7L27.3,8.339A18.01,18.01,0,0,1,34.084,7ZM30.719,20.986l-.129.086-2.65.662-.079-1.67A28.912,28.912,0,0,0,30.719,20.986ZM20.207,15.207a.7.7,0,0,1,.5-.207h1.586a.707.707,0,0,1,.707.707,20.126,20.126,0,0,1-.152,2.452l-.654,5.229a.7.7,0,0,1-1.388,0l-.654-5.229A20.126,20.126,0,0,1,20,15.707.7.7,0,0,1,20.207,15.207Zm-2.191,1a21.89,21.89,0,0,0,.152,2.2l.653,5.229a2.654,2.654,0,0,0,.179.655v.024a.685.685,0,0,1-1.35.166l-1.6-6.4A3.372,3.372,0,0,1,18.016,16.206ZM14,19h.22L15.7,24.909a.624.624,0,0,1-.321.091.907.907,0,0,1-.862-.622l-.565-1.694-1.8.6A19.194,19.194,0,0,1,12,21,2,2,0,0,1,14,19ZM6.65,56.583a4.562,4.562,0,0,1-2.076-6.357l9.3-16.741a1,1,0,0,0,.106-.681l-1.607-8.039c-.057-.288-.085-.581-.13-.871l.373,1.118A2.908,2.908,0,0,0,15.376,27a2.6,2.6,0,0,0,1.459-.455,2.664,2.664,0,0,0,3.7-.724A2.675,2.675,0,0,0,21.5,26a2.705,2.705,0,0,0,2.679-2.364l.653-5.229a22,22,0,0,0,.168-2.7,2.677,2.677,0,0,0-2-2.6V4.017a1.048,1.048,0,0,1,2.093-.048L26,23.048a1,1,0,0,0,1.241.922l4-1a1,1,0,0,0,.313-.138l.848-.565A7.514,7.514,0,0,1,36.586,21a.414.414,0,0,1,.293.707,21.509,21.509,0,0,1-5.6,4.034l-2.729,1.364a1,1,0,0,0-.353.294l-.526.7a10.642,10.642,0,0,1-5.916,3.928,1,1,0,0,0-.653.523l-9,18a1,1,0,0,0,.579,1.4L15,52.72v7.717Zm9.4-5.621-1.638-.546L22.079,35.08a4.97,4.97,0,0,0,3.531,1.887A13.4,13.4,0,0,0,31,44.167V44.4a5.71,5.71,0,0,1-1.438,3.786,1.014,1.014,0,0,0-.787-.156Zm14.987-1.429a7.7,7.7,0,0,0,1.921-4.315,12.339,12.339,0,0,0,10.09,0,7.708,7.708,0,0,0,1.92,4.316,11.067,11.067,0,0,1-13.931,0Z"/><path d="M38,40a4,4,0,0,1-4-4H32a6,6,0,0,0,12,0H42A4,4,0,0,1,38,40Z"/></svg>