<svg xmlns="http://www.w3.org/2000/svg" fill="#1B4D3E" enable-background="new 0 0 512 512" viewBox="0 0 512 512"><path d="M89.6 148.3H51.2c-4.14 0-7.5-3.36-7.5-7.5s3.36-7.5 7.5-7.5h38.4c4.14 0 7.5 3.36 7.5 7.5S93.74 148.3 89.6 148.3zM64 173.9H51.2c-4.14 0-7.5-3.36-7.5-7.5s3.36-7.5 7.5-7.5H64c4.14 0 7.5 3.36 7.5 7.5S68.14 173.9 64 173.9zM172 314.7c15.16 0 27.5-12.34 27.5-27.5V212c0-15.16-12.34-27.5-27.5-27.5l-80.2 0c-12.41 0-22.5 10.09-22.5 22.5v8.4c0 12.41 10.09 22.5 22.5 22.5h54.3v23.4H96.8c-7.34 0-14.25 2.86-19.44 8.05-5.19 5.19-8.05 12.1-8.05 19.45V364c0 15.16 12.34 27.5 27.5 27.5H177c12.41 0 22.5-10.09 22.5-22.5v-8.4c0-12.41-10.09-22.5-22.5-22.5h-54.3v-23.4H172zM115.2 353.1H177c4.14 0 7.5 3.36 7.5 7.5v8.4c0 4.14-3.36 7.5-7.5 7.5H96.8c-6.89 0-12.5-5.61-12.5-12.5v-75.2c0-3.34 1.3-6.48 3.66-8.84 2.36-2.36 5.5-3.66 8.84-3.66h56.8c4.14 0 7.5-3.36 7.5-7.5v-38.4c0-4.14-3.36-7.5-7.5-7.5H91.8c-4.14 0-7.5-3.36-7.5-7.5V207c0-4.14 3.36-7.5 7.5-7.5l80.2 0c6.89 0 12.5 5.61 12.5 12.5v75.2c0 6.89-5.61 12.5-12.5 12.5h-56.8c-4.14 0-7.5 3.36-7.5 7.5v38.4C107.7 349.74 111.06 353.1 115.2 353.1zM358.4 353.1h38.4c4.14 0 7.5-3.36 7.5-7.5V313c0-4.14-3.36-7.5-7.5-7.5s-7.5 3.36-7.5 7.5v25.1h-23.4V237.9h23.4V288c0 4.14 3.36 7.5 7.5 7.5s7.5-3.36 7.5-7.5v-57.6c0-4.14-3.36-7.5-7.5-7.5h-38.4c-4.14 0-7.5 3.36-7.5 7.5v115.2C350.9 349.74 354.26 353.1 358.4 353.1z"/><path d="M415.2 391.5c15.16 0 27.5-12.34 27.5-27.5V212c0-15.16-12.34-27.5-27.5-27.5H340c-15.16 0-27.5 12.34-27.5 27.5v152c0 15.16 12.34 27.5 27.5 27.5H415.2zM327.5 364V212c0-6.89 5.61-12.5 12.5-12.5h75.2c6.89 0 12.5 5.61 12.5 12.5v152c0 6.89-5.61 12.5-12.5 12.5H340C333.11 376.5 327.5 370.89 327.5 364zM235.4 276.3h41.2c6.89 0 12.5-5.61 12.5-12.5v-28.4c0-6.89-5.61-12.5-12.5-12.5h-41.2c-6.89 0-12.5 5.61-12.5 12.5v28.4C222.9 270.69 228.51 276.3 235.4 276.3zM237.9 237.9h36.2v23.4h-36.2V237.9zM222.9 340.6c0 6.89 5.61 12.5 12.5 12.5h41.2c6.89 0 12.5-5.61 12.5-12.5v-28.4c0-6.89-5.61-12.5-12.5-12.5h-41.2c-6.89 0-12.5 5.61-12.5 12.5V340.6zM237.9 314.7h36.2v23.4h-36.2V314.7z"/><path d="M456.4,107.7H311.08C302.8,85.31,281.24,69.3,256,69.3s-46.8,16.01-55.08,38.4H55.6c-20.68,0-37.5,16.82-37.5,37.5v260
			c0,20.68,16.82,37.5,37.5,37.5h400.8c20.68,0,37.5-16.82,37.5-37.5v-260C493.9,124.52,477.08,107.7,456.4,107.7z M248.5,84.94
			v35.56h-35.56C216.09,102.4,230.4,88.09,248.5,84.94z M478.9,405.2c0,12.41-10.09,22.5-22.5,22.5H55.6
			c-12.41,0-22.5-10.09-22.5-22.5v-260c0-12.41,10.09-22.5,22.5-22.5h141.94c-3.09,34.41,24.07,64,58.46,64
			c34.34,0,61.56-29.54,58.46-64H456.4c12.41,0,22.5,10.09,22.5,22.5V405.2z"/><path d="M468.3,396.8v-25.6c0-4.14-3.36-7.5-7.5-7.5s-7.5,3.36-7.5,7.5v25.6c0,4.14,3.36,7.5,7.5,7.5S468.3,400.94,468.3,396.8z"/></svg>
