<svg xmlns="http://www.w3.org/2000/svg" enable-background="new 0 0 24 24" viewBox="0 0 24 24"><path d="M21,2H3C2.5,2,2,2.5,2,3v14c0,0.5,0.5,1,1,1h2v3c0,0.5,0.5,1,1,1h3c0.5,0,1-0.5,1-1v-3h4v3c0,0.5,0.5,1,1,1h3
			c0.5,0,1-0.5,1-1v-3h2c0.5,0,1-0.5,1-1V3C22,2.5,21.5,2,21,2z M8,20H7v-2h1V20z M17,20h-1v-2h1V20z M20,16H4V4h16V16z"/><circle cx="7.5" cy="6.5" r="1.5"/><path d="M16 11.6l-.3-.3c-.4-.4-1-.4-1.4 0s-.4 1 0 1.4l.3.3-.3.3c-.4.4-.4 1 0 1.4.2.2.5.3.7.3s.5-.1.7-.3l.3-.3.3.3c.2.2.5.3.7.3s.5-.1.7-.3c.4-.4.4-1 0-1.4L17.4 13l.3-.3c.4-.4.4-1 0-1.4s-1-.4-1.4 0L16 11.6zM11 7c3.6 0 4 1.9 4 2.1.1.5.5.9 1 .9 0 0 .1 0 .1 0 .6 0 1-.5.9-1.1C16.9 7.6 15.5 5 11 5c-.6 0-1 .4-1 1S10.4 7 11 7z"/></svg>