<svg xmlns="http://www.w3.org/2000/svg" data-name="Layer 1" viewBox="0 0 512 512"><path d="M322.313 105.327a37.407 37.407 0 1 0-44.406 36.741v77.193a37.4 37.4 0 0 0 .009 73.481l.109 77.17a37.4 37.4 0 1 0 14 .043l-.109-77.215a37.4 37.4 0 0 0-.009-73.479V142.068A37.465 37.465 0 0 0 322.313 105.327zm-60.813 0a23.407 23.407 0 1 1 23.407 23.407A23.433 23.433 0 0 1 261.5 105.327zm46.813 301.346a23.407 23.407 0 1 1-23.406-23.407A23.433 23.433 0 0 1 308.313 406.673zm0-150.673a23.407 23.407 0 1 1-23.406-23.407A23.433 23.433 0 0 1 308.313 256zM350.228 141.275h98.889a7 7 0 0 0 7-7v-57.9a7 7 0 0 0-7-7H350.228a7 7 0 0 0-7 7v57.9A7 7 0 0 0 350.228 141.275zm7-57.9h84.889v43.9H357.228zM494.5 220.051H350.228a7 7 0 0 0-7 7v57.9a7 7 0 0 0 7 7H494.5a7 7 0 0 0 7-7v-57.9A7 7 0 0 0 494.5 220.051zm-7 57.9H357.228v-43.9H487.5zM449.116 370.725H350.227a7 7 0 0 0-7 7v57.9a7 7 0 0 0 7 7h98.889a7 7 0 0 0 7-7v-57.9A7 7 0 0 0 449.116 370.725zm-7 57.9H357.227v-43.9h84.889z"/><path d="M237.5,167.923H195.423V128.539a7,7,0,0,0-7-7H66.859a7,7,0,0,0-7,7v39.384H17.5a7,7,0,0,0-7,7v21.718a55.576,55.576,0,0,0,55.513,55.513h2.444A67.754,67.754,0,0,0,120.5,286.485v79.977H80.962v14h93.076v-14H134.5V286.48a68.15,68.15,0,0,0,52.007-34.326h2.48A55.576,55.576,0,0,0,244.5,196.641V174.923A7,7,0,0,0,237.5,167.923Zm-213,28.718V181.923H59.859v37.282A67.412,67.412,0,0,0,62.535,238,41.561,41.561,0,0,1,24.5,196.641Zm156.923,22.223c-.25,29.766-24.439,53.982-53.923,53.982a53.7,53.7,0,0,1-53.641-53.641V135.538H181.422v83.326ZM230.5,196.641a41.561,41.561,0,0,1-37.955,41.35,68.51,68.51,0,0,0,2.878-19.068v-37H230.5Z"/><rect width="14" height="44.538" x="88.346" y="157.026"/><rect width="14" height="14.795" x="88.346" y="220.615"/></svg>